<svg width="688" height="1188" viewBox="0 0 688 1188" fill="none" xmlns="http://www.w3.org/2000/svg">
<g opacity="0.3">
<circle cx="119" cy="948" r="119" transform="rotate(-90 119 948)" fill="#A500FF"/>
<path d="M383.2 840.6C409.067 840.6 429.6 849.267 444.8 866.6C460 883.667 467.6 906.867 467.6 936.2V1067H389.2V946.6C389.2 933.8 385.867 923.8 379.2 916.6C372.533 909.133 363.6 905.4 352.4 905.4C340.667 905.4 331.467 909.133 324.8 916.6C318.133 923.8 314.8 933.8 314.8 946.6V1067H236.4V842.6H314.8V874.6C321.733 864.467 331.067 856.333 342.8 850.2C354.533 843.8 368 840.6 383.2 840.6ZM691.019 952.2C691.019 958.333 690.619 964.467 689.819 970.6H541.419C542.219 982.867 545.552 992.067 551.419 998.2C557.552 1004.07 565.285 1007 574.619 1007C587.685 1007 597.019 1001.13 602.619 989.4H686.219C682.752 1004.87 675.952 1018.73 665.819 1031C655.952 1043 643.419 1052.47 628.219 1059.4C613.019 1066.33 596.219 1069.8 577.819 1069.8C555.685 1069.8 535.952 1065.13 518.619 1055.8C501.552 1046.47 488.085 1033.13 478.219 1015.8C468.619 998.467 463.819 978.067 463.819 954.6C463.819 931.133 468.619 910.867 478.219 893.8C487.819 876.467 501.152 863.133 518.219 853.8C535.552 844.467 555.419 839.8 577.819 839.8C599.952 839.8 619.552 844.333 636.619 853.4C653.685 862.467 667.019 875.533 676.619 892.6C686.219 909.4 691.019 929.267 691.019 952.2ZM611.019 932.6C611.019 923 607.819 915.533 601.419 910.2C595.019 904.6 587.019 901.8 577.419 901.8C567.819 901.8 559.952 904.467 553.819 909.8C547.685 914.867 543.685 922.467 541.819 932.6H611.019Z" fill="#A500FF"/>
<circle cx="119" cy="726" r="119" transform="rotate(-90 119 726)" fill="#84EDFF"/>
<path d="M383.2 618.6C409.067 618.6 429.6 627.267 444.8 644.6C460 661.667 467.6 684.867 467.6 714.2V845H389.2V724.6C389.2 711.8 385.867 701.8 379.2 694.6C372.533 687.133 363.6 683.4 352.4 683.4C340.667 683.4 331.467 687.133 324.8 694.6C318.133 701.8 314.8 711.8 314.8 724.6V845H236.4V620.6H314.8V652.6C321.733 642.467 331.067 634.333 342.8 628.2C354.533 621.8 368 618.6 383.2 618.6ZM691.019 730.2C691.019 736.333 690.619 742.467 689.819 748.6H541.419C542.219 760.867 545.552 770.067 551.419 776.2C557.552 782.067 565.285 785 574.619 785C587.685 785 597.019 779.133 602.619 767.4H686.219C682.752 782.867 675.952 796.733 665.819 809C655.952 821 643.419 830.467 628.219 837.4C613.019 844.333 596.219 847.8 577.819 847.8C555.685 847.8 535.952 843.133 518.619 833.8C501.552 824.467 488.085 811.133 478.219 793.8C468.619 776.467 463.819 756.067 463.819 732.6C463.819 709.133 468.619 688.867 478.219 671.8C487.819 654.467 501.152 641.133 518.219 631.8C535.552 622.467 555.419 617.8 577.819 617.8C599.952 617.8 619.552 622.333 636.619 631.4C653.685 640.467 667.019 653.533 676.619 670.6C686.219 687.4 691.019 707.267 691.019 730.2ZM611.019 710.6C611.019 701 607.819 693.533 601.419 688.2C595.019 682.6 587.019 679.8 577.419 679.8C567.819 679.8 559.952 682.467 553.819 687.8C547.685 692.867 543.685 700.467 541.819 710.6H611.019Z" fill="#84EDFF"/>
<circle cx="119" cy="504" r="119" transform="rotate(-90 119 504)" fill="#FF00AA"/>
<path d="M383.2 396.6C409.067 396.6 429.6 405.267 444.8 422.6C460 439.667 467.6 462.867 467.6 492.2V623H389.2V502.6C389.2 489.8 385.867 479.8 379.2 472.6C372.533 465.133 363.6 461.4 352.4 461.4C340.667 461.4 331.467 465.133 324.8 472.6C318.133 479.8 314.8 489.8 314.8 502.6V623H236.4V398.6H314.8V430.6C321.733 420.467 331.067 412.333 342.8 406.2C354.533 399.8 368 396.6 383.2 396.6ZM691.019 508.2C691.019 514.333 690.619 520.467 689.819 526.6H541.419C542.219 538.867 545.552 548.067 551.419 554.2C557.552 560.067 565.285 563 574.619 563C587.685 563 597.019 557.133 602.619 545.4H686.219C682.752 560.867 675.952 574.733 665.819 587C655.952 599 643.419 608.467 628.219 615.4C613.019 622.333 596.219 625.8 577.819 625.8C555.685 625.8 535.952 621.133 518.619 611.8C501.552 602.467 488.085 589.133 478.219 571.8C468.619 554.467 463.819 534.067 463.819 510.6C463.819 487.133 468.619 466.867 478.219 449.8C487.819 432.467 501.152 419.133 518.219 409.8C535.552 400.467 555.419 395.8 577.819 395.8C599.952 395.8 619.552 400.333 636.619 409.4C653.685 418.467 667.019 431.533 676.619 448.6C686.219 465.4 691.019 485.267 691.019 508.2ZM611.019 488.6C611.019 479 607.819 471.533 601.419 466.2C595.019 460.6 587.019 457.8 577.419 457.8C567.819 457.8 559.952 460.467 553.819 465.8C547.685 470.867 543.685 478.467 541.819 488.6H611.019Z" fill="#FF00AA"/>
<circle cx="119" cy="282" r="119" transform="rotate(-90 119 282)" fill="#CDFF00"/>
<path d="M383.2 174.6C409.067 174.6 429.6 183.267 444.8 200.6C460 217.667 467.6 240.867 467.6 270.2V401H389.2V280.6C389.2 267.8 385.867 257.8 379.2 250.6C372.533 243.133 363.6 239.4 352.4 239.4C340.667 239.4 331.467 243.133 324.8 250.6C318.133 257.8 314.8 267.8 314.8 280.6V401H236.4V176.6H314.8V208.6C321.733 198.467 331.067 190.333 342.8 184.2C354.533 177.8 368 174.6 383.2 174.6ZM691.019 286.2C691.019 292.333 690.619 298.467 689.819 304.6H541.419C542.219 316.867 545.552 326.067 551.419 332.2C557.552 338.067 565.285 341 574.619 341C587.685 341 597.019 335.133 602.619 323.4H686.219C682.752 338.867 675.952 352.733 665.819 365C655.952 377 643.419 386.467 628.219 393.4C613.019 400.333 596.219 403.8 577.819 403.8C555.685 403.8 535.952 399.133 518.619 389.8C501.552 380.467 488.085 367.133 478.219 349.8C468.619 332.467 463.819 312.067 463.819 288.6C463.819 265.133 468.619 244.867 478.219 227.8C487.819 210.467 501.152 197.133 518.219 187.8C535.552 178.467 555.419 173.8 577.819 173.8C599.952 173.8 619.552 178.333 636.619 187.4C653.685 196.467 667.019 209.533 676.619 226.6C686.219 243.4 691.019 263.267 691.019 286.2ZM611.019 266.6C611.019 257 607.819 249.533 601.419 244.2C595.019 238.6 587.019 235.8 577.419 235.8C567.819 235.8 559.952 238.467 553.819 243.8C547.685 248.867 543.685 256.467 541.819 266.6H611.019Z" fill="#CDFF00"/>
</g>
</svg>
