<svg width="29" height="67" viewBox="0 0 29 67" fill="none" xmlns="http://www.w3.org/2000/svg">
<path d="M1.70817 44.8395C4.96667 51.3773 12.3114 63.9069 13.834 65.5261C14.5964 66.3365 15.7761 67 16.4565 67C17.7523 67 22.5804 62.7074 24.6008 59.7584C26.482 57.0126 29.585 48.833 28.9041 48.415C28.5515 48.199 26.6645 49.8053 24.3757 52.2687C22.2176 54.5921 20.3499 56.385 20.2257 56.2526C20.026 56.0403 19.2393 46.9743 16.3544 11.6421C15.9263 6.39912 15.3129 1.62141 14.9911 1.02486C14.0835 -0.65918 11.1921 -0.178925 10.2337 1.81545C9.38334 3.58471 9.89357 14.4988 11.8255 35.8763C13.3238 52.452 13.3475 52.3726 9.15548 44.7837C7.26733 41.3652 5.25013 38.3177 4.67295 38.0111C3.05152 37.1498 1.36801 37.6434 0.465241 39.2449C-0.313344 40.6267 -0.250171 40.9107 1.70817 44.8395Z" fill="#84EDFF"/>
</svg>
