<svg width="60" height="95" viewBox="0 0 60 95" fill="none" xmlns="http://www.w3.org/2000/svg">
<path d="M52.5611 40.2229C56.1309 31.79 59.4176 18.0683 59.4265 11.5632C59.431 8.17776 58.853 5.90225 57.4487 3.77347C54.2974 -1.00354 50.2577 -0.876341 51.4836 3.96107C53.2724 11.0212 47.5348 28.7918 38.5713 43.9519C33.0736 53.2519 22.437 66.9696 20.9594 66.6656C20.6095 66.5942 20.4354 64.8804 20.5722 62.8589C20.9275 57.6403 19.3786 48.6392 17.8225 46.8803C16.8756 45.8091 16.1403 45.7264 15.205 46.5849C12.6721 48.9125 8.00262 59.8953 5.95515 68.3423C4.81435 73.0523 2.99846 79.1309 1.9208 81.8503C-1.10195 89.4789 1.36587 94.7047 7.87967 94.4687C14.1557 94.2411 38.2506 86.0167 44.9653 81.8098C48.4003 79.6578 49.0661 78.861 49.2816 76.6423C49.5371 74.0188 48.0987 72.0599 45.2365 71.1323C44.5039 70.8941 41.3205 71.0515 38.1621 71.4809L32.4201 72.2617L36.3316 67.3195C42.0624 60.0793 49.2023 48.1589 52.5611 40.2229Z" fill="#A500FF"/>
</svg>
