<svg width="41" height="53" viewBox="0 0 41 53" fill="none" xmlns="http://www.w3.org/2000/svg">
<path d="M5.16387 3.21451C4.75884 1.37561 4.24511 0.575794 3.43569 0.52199C1.77077 0.412706 0.0229932 4.57742 0.0912508 8.49253C0.167189 12.8406 3.68152 22.9002 7.03299 28.3594C10.1971 33.5142 15.0138 39.0185 18.2821 41.2141C19.5126 42.0411 20.4902 42.7799 20.455 42.8561C20.4195 42.9329 18.6836 43.6252 16.5972 44.395C11.5256 46.2663 11.1018 47.2942 14.7141 48.9631C17.6625 50.3252 29.4353 52.2705 33.7324 52.1058C38.9244 51.9069 41.7328 48.3149 40.8304 43.0281C38.095 27.009 37.2582 24.2261 35.2486 24.471C33.7425 24.6551 32.1203 29.6638 32.0851 34.2386L32.0502 38.7617L29.7878 37.3193C24.1514 33.7271 19.0948 29.7715 16.8006 27.1614C11.5856 21.228 7.10226 12.0004 5.16387 3.21451Z" fill="#FF00AA"/>
</svg>
