<svg width="1512" height="189" viewBox="0 0 1512 189" fill="none" xmlns="http://www.w3.org/2000/svg">
<path d="M189 189V0L0 0V189L189 189Z" fill="#84EDFF"/>
<path d="M93.5179 185.104C143.015 185.104 183.14 144.979 183.14 95.4818C183.14 45.985 143.015 5.85983 93.5179 5.85983C44.021 5.85983 3.89587 45.985 3.89587 95.4818C3.89587 144.979 44.021 185.104 93.5179 185.104Z" fill="#A500FF"/>
<path d="M93.5177 137.655C116.809 137.655 135.691 118.773 135.691 95.4819C135.691 72.1903 116.809 53.3087 93.5177 53.3087C70.2261 53.3087 51.3446 72.1903 51.3446 95.4819C51.3446 118.773 70.2261 137.655 93.5177 137.655Z" fill="#84EDFF"/>
<path d="M378 189V0L189 0V189L378 189Z" fill="#FF00AA"/>
<path d="M284.19 184.114C333.687 184.114 373.812 143.989 373.812 94.4919C373.812 44.9951 333.687 4.8699 284.19 4.8699C234.693 4.8699 194.568 44.9951 194.568 94.4919C194.568 143.989 234.693 184.114 284.19 184.114Z" fill="#CDFF00"/>
<path d="M378.016 0.016571V189H567V0.016571H378.016Z" fill="#A500FF"/>
<path d="M567 7.62939e-06C567 52.1843 524.701 94.4998 472.5 94.4998C420.299 94.4998 378 52.2005 378 7.62939e-06" fill="#CDFF00"/>
<path d="M516.974 0.000289917C516.974 24.5586 497.058 44.4746 472.5 44.4746C447.942 44.4746 428.026 24.5586 428.026 0.000289917" fill="#A500FF"/>
<path d="M756 0.952759L567.016 0.952759V188.984H756V0.952759Z" fill="#FF00AA"/>
<path d="M756 94.9765C756 146.898 713.701 189 661.5 189C609.299 189 567 146.914 567 94.9765" fill="#84EDFF"/>
<path d="M756 -2.28882e-05C756 51.9213 713.701 94.0235 661.5 94.0235C609.299 94.0235 567 51.9374 567 -2.28882e-05" fill="#84EDFF"/>
<path d="M945 189V0L756 0V189L945 189Z" fill="#A500FF"/>
<path d="M851.19 184.114C900.687 184.114 940.812 143.989 940.812 94.4919C940.812 44.9951 900.687 4.8699 851.19 4.8699C801.693 4.8699 761.568 44.9951 761.568 94.4919C761.568 143.989 801.693 184.114 851.19 184.114Z" fill="#84EDFF"/>
<path d="M1133.98 188.983V0L945 0V188.983L1133.98 188.983Z" fill="#84EDFF"/>
<path d="M945 189C945 136.816 987.299 94.5002 1039.5 94.5002C1091.7 94.5002 1134 136.799 1134 189" fill="#FF00AA"/>
<path d="M995.026 189C995.026 164.441 1014.94 144.525 1039.5 144.525C1064.06 144.525 1083.97 164.441 1083.97 189" fill="#84EDFF"/>
<path d="M1134 188.047L1322.98 188.047V0.0164032L1134 0.0164032V188.047Z" fill="#FF00AA"/>
<path d="M1134 94.0235C1134 42.1022 1176.3 0 1228.5 0C1280.7 0 1323 42.0861 1323 94.0235" fill="#CDFF00"/>
<path d="M1134 189C1134 137.079 1176.3 94.9765 1228.5 94.9765C1280.7 94.9765 1323 137.063 1323 189" fill="#CDFF00"/>
<path d="M1504.24 176.404C1504.18 180.641 1503.88 184.828 1503.51 188.984H1512V0L1323 0V8.94358C1329.09 8.37547 1335.26 8.0996 1341.51 8.19699C1432.9 9.70652 1505.75 85.0207 1504.24 176.404Z" fill="#A500FF"/>
<path d="M1340.06 95.7987C1383.06 96.5129 1417.35 131.946 1416.65 174.96C1416.57 179.764 1416.03 184.455 1415.12 189H1503.51C1503.9 184.845 1504.18 180.657 1504.24 176.421C1505.75 85.0373 1432.9 9.72305 1341.51 8.21352C1335.26 8.11613 1329.09 8.392 1323 8.9601V97.4218C1328.5 96.2856 1334.2 95.7175 1340.06 95.8149V95.7987Z" fill="#CDFF00"/>
<path d="M1340.06 95.7987C1334.22 95.7013 1328.5 96.2694 1323 97.4056V188.984H1415.12C1416.03 184.439 1416.57 179.748 1416.65 174.944C1417.36 131.946 1383.08 96.4967 1340.06 95.7825V95.7987Z" fill="#A500FF"/>
</svg>
