<svg width="390" height="196" viewBox="0 0 390 196" fill="none" xmlns="http://www.w3.org/2000/svg">
<path d="M389.991 195.154V97.5814L292.418 97.5814V195.154H389.991Z" fill="#84EDFF"/>
<path d="M389.991 195.154V97.5814L292.418 97.5814V195.154H389.991Z" fill="#84EDFF"/>
<path d="M292.418 195.163C292.418 168.22 314.258 146.372 341.209 146.372C368.16 146.372 390 168.211 390 195.163" fill="#A500FF"/>
<path d="M318.247 195.163C318.247 182.483 328.53 172.2 341.209 172.2C353.889 172.2 364.172 182.483 364.172 195.163" fill="#84EDFF"/>
<path d="M292.252 195.163V97.5898H195.171V195.163H292.252Z" fill="#FF00AA"/>
<path d="M243.707 195.163C216.9 195.163 195.162 173.323 195.162 146.372C195.162 119.421 216.892 97.5814 243.707 97.5814" fill="#CDFF00"/>
<path d="M292.744 195.163C265.937 195.163 244.199 173.323 244.199 146.372C244.199 119.421 265.928 97.5814 292.744 97.5814" fill="#CDFF00"/>
<path d="M194.846 0.00856018V97.5814H292.419V0.00856018H194.846Z" fill="#A500FF"/>
<path d="M292.418 1.14441e-05C292.418 26.943 270.579 48.7906 243.628 48.7906C216.676 48.7906 194.837 26.9513 194.837 1.14441e-05" fill="#CDFF00"/>
<path d="M266.59 0.000143051C266.59 12.6797 256.308 22.9624 243.628 22.9624C230.949 22.9624 220.666 12.6797 220.666 0.000143051" fill="#A500FF"/>
<path d="M390 0.491974L292.427 0.491974V97.573H390V0.491974Z" fill="#FF00AA"/>
<path d="M390 49.0367C390 75.8439 368.16 97.5814 341.209 97.5814C314.258 97.5814 292.418 75.8522 292.418 49.0367" fill="#84EDFF"/>
<path d="M390 1.52588e-05C390 26.8072 368.16 48.5447 341.209 48.5447C314.258 48.5447 292.418 26.8155 292.418 1.52588e-05" fill="#84EDFF"/>
<path d="M93.5754 188.985C93.5418 191.172 93.391 193.334 93.1982 195.479H97.5815L97.5815 97.9066L0.000328064 97.9066V102.524C3.14324 102.231 6.32806 102.088 9.55479 102.139C56.7404 102.918 94.3548 141.803 93.5754 188.985Z" fill="#A500FF"/>
<path d="M8.8085 147.368C31.0101 147.736 48.711 166.031 48.3506 188.239C48.3087 190.719 48.0321 193.141 47.5627 195.488H93.1979C93.399 193.343 93.5415 191.18 93.575 188.993C94.3545 141.812 56.74 102.927 9.55442 102.147C6.32769 102.097 3.14288 102.239 -3.8147e-05 102.533V148.206C2.84116 147.619 5.78292 147.326 8.8085 147.376V147.368Z" fill="#CDFF00"/>
<path d="M8.80872 147.368C5.79152 147.317 2.84138 147.611 0.000183105 148.197L0.000183105 195.48H47.563C48.0323 193.133 48.3089 190.711 48.3508 188.231C48.7196 166.031 31.0187 147.728 8.80872 147.359V147.368Z" fill="#A500FF"/>
<path d="M195.154 195.479V97.9066L97.5816 97.9066V195.479H195.154Z" fill="#84EDFF"/>
<path d="M195.154 195.479V97.9066L97.5808 97.9066V195.479H195.154Z" fill="#84EDFF"/>
<path d="M97.5813 195.488C97.5813 168.545 119.421 146.697 146.372 146.697C173.323 146.697 195.162 168.536 195.162 195.488" fill="#FF00AA"/>
<path d="M123.41 195.488C123.41 182.808 133.693 172.525 146.372 172.525C159.052 172.525 169.335 182.808 169.335 195.488" fill="#84EDFF"/>
<path d="M97.9062 97.9066V0.32518L0.324875 0.32518V97.9066L97.9062 97.9066Z" fill="#84EDFF"/>
<path d="M48.6083 95.895C74.1637 95.895 94.8805 75.1782 94.8805 49.6228C94.8805 24.0674 74.1637 3.35063 48.6083 3.35063C23.0529 3.35063 2.33618 24.0674 2.33618 49.6228C2.33618 75.1782 23.0529 95.895 48.6083 95.895Z" fill="#A500FF"/>
<path d="M48.6088 71.397C60.6344 71.397 70.383 61.6483 70.383 49.6228C70.383 37.5973 60.6344 27.8487 48.6088 27.8487C36.5833 27.8487 26.8347 37.5973 26.8347 49.6228C26.8347 61.6483 36.5833 71.397 48.6088 71.397Z" fill="#84EDFF"/>
<path d="M195.163 97.9066V0.325195L97.5812 0.325195V97.9066L195.163 97.9066Z" fill="#FF00AA"/>
<path d="M146.728 95.3838C172.284 95.3838 193.001 74.6671 193.001 49.1117C193.001 23.5563 172.284 2.83951 146.728 2.83951C121.173 2.83951 100.456 23.5563 100.456 49.1117C100.456 74.6671 121.173 95.3838 146.728 95.3838Z" fill="#CDFF00"/>
</svg>
